<?xml version="1.0" encoding="utf-8"?>
<!-- Generator: Adobe Illustrator 15.0.0, SVG Export Plug-In . SVG Version: 6.00 Build 0)  -->
<!DOCTYPE svg PUBLIC "-//W3C//DTD SVG 1.1//EN" "http://www.w3.org/Graphics/SVG/1.1/DTD/svg11.dtd">
<svg version="1.1" id="Layer_1" xmlns="http://www.w3.org/2000/svg" xmlns:xlink="http://www.w3.org/1999/xlink" x="0px" y="0px"
	 width="96.379px" height="90.71px" viewBox="0 0 96.379 90.71" enable-background="new 0 0 96.379 90.71" xml:space="preserve">
<path fill="#0A69AD" d="M6.979,21.3c-8.335,11.98-7.298,27.567-0.931,40.295c0.151,0.305,0.311,0.605,0.467,0.906
	c0.1,0.188,0.193,0.385,0.298,0.572c0.059,0.112,0.124,0.223,0.186,0.329c0.108,0.203,0.22,0.396,0.332,0.595
	c0.197,0.35,0.4,0.694,0.607,1.043c0.115,0.188,0.229,0.381,0.347,0.569c0.229,0.371,0.465,0.738,0.706,1.104
	c0.1,0.156,0.197,0.313,0.3,0.465c0.332,0.494,0.672,0.988,1.021,1.475c0.009,0.012,0.019,0.025,0.029,0.039
	c0.056,0.076,0.116,0.152,0.173,0.23c0.303,0.418,0.615,0.83,0.931,1.238c0.116,0.147,0.233,0.299,0.351,0.446
	c0.282,0.354,0.569,0.705,0.86,1.058c0.109,0.131,0.219,0.264,0.329,0.393c0.392,0.461,0.791,0.92,1.198,1.369
	c0.008,0.008,0.018,0.018,0.024,0.025c0.018,0.02,0.032,0.03,0.047,0.051c0.397,0.436,0.806,0.858,1.218,1.285
	c0.128,0.131,0.259,0.264,0.391,0.393c0.32,0.322,0.645,0.639,0.973,0.955c0.134,0.127,0.266,0.256,0.398,0.377
	c0.438,0.414,0.881,0.818,1.333,1.215c0.008,0.006,0.014,0.012,0.021,0.016c0.077,0.068,0.156,0.133,0.232,0.199
	c0.397,0.344,0.803,0.686,1.211,1.021c0.166,0.135,0.334,0.268,0.501,0.4c0.334,0.268,0.671,0.53,1.01,0.788
	c0.18,0.138,0.359,0.272,0.54,0.41c0.374,0.274,0.752,0.547,1.133,0.813c0.139,0.102,0.273,0.199,0.412,0.293
	c0.039,0.026,0.074,0.055,0.113,0.082c0.361,0.248,0.731,0.488,1.101,0.727c0.158,0.105,0.315,0.215,0.476,0.318
	c0.566,0.356,1.142,0.713,1.723,1.055c0.157,0.09,0.317,0.178,0.476,0.268c0.428,0.248,0.857,0.488,1.293,0.728
	c0.235,0.127,0.478,0.245,0.715,0.366c0.308,0.162,0.613,0.324,0.926,0.48c0.07,0.035,0.144,0.07,0.214,0.104
	c0.125,0.062,0.252,0.119,0.378,0.185c0.484,0.229,0.973,0.459,1.467,0.679c0.104,0.047,0.206,0.094,0.31,0.139
	c0.565,0.248,1.135,0.484,1.71,0.711c0.139,0.057,0.277,0.109,0.417,0.164c0.532,0.205,1.071,0.408,1.613,0.598
	c0.068,0.025,0.135,0.047,0.203,0.07c0.594,0.209,1.194,0.4,1.799,0.59c0.145,0.041,0.289,0.088,0.435,0.129
	c0.615,0.186,1.224,0.408,1.858,0.525c40.311,7.35,52.02-24.226,52.02-24.226c-9.834,12.813-27.291,16.19-43.83,12.431
	c-0.625-0.144-1.233-0.338-1.845-0.519c-0.155-0.047-0.308-0.095-0.46-0.142c-0.597-0.182-1.189-0.375-1.777-0.578
	c-0.081-0.028-0.162-0.059-0.244-0.088c-0.527-0.186-1.049-0.381-1.567-0.58c-0.146-0.059-0.293-0.114-0.439-0.174
	c-0.569-0.225-1.134-0.459-1.692-0.703c-0.114-0.049-0.225-0.1-0.338-0.147c-0.479-0.219-0.954-0.438-1.427-0.664
	c-0.137-0.065-0.273-0.131-0.413-0.198c-0.371-0.181-0.737-0.373-1.104-0.562c-0.245-0.129-0.494-0.252-0.737-0.388
	c-0.447-0.237-0.886-0.487-1.323-0.741c-0.147-0.082-0.298-0.162-0.446-0.248c-0.581-0.343-1.155-0.697-1.724-1.058
	c-0.156-0.1-0.31-0.207-0.465-0.309c-0.412-0.266-0.822-0.537-1.226-0.816c-0.134-0.09-0.264-0.188-0.396-0.276
	c-0.39-0.274-0.775-0.556-1.159-0.838c-0.174-0.13-0.345-0.261-0.514-0.39c-0.351-0.268-0.7-0.539-1.046-0.815
	c-0.156-0.125-0.313-0.25-0.466-0.375c-0.439-0.361-0.874-0.726-1.303-1.099c-0.045-0.039-0.095-0.078-0.143-0.119
	c-0.464-0.407-0.92-0.825-1.37-1.246c-0.131-0.125-0.258-0.245-0.386-0.37c-0.333-0.315-0.661-0.638-0.983-0.966
	c-0.13-0.129-0.259-0.256-0.386-0.385c-0.41-0.42-0.813-0.846-1.208-1.276c-0.02-0.021-0.04-0.041-0.06-0.063
	c-0.417-0.457-0.825-0.924-1.225-1.395c-0.108-0.129-0.213-0.254-0.32-0.381c-0.298-0.359-0.594-0.723-0.882-1.09
	c-0.108-0.131-0.216-0.267-0.323-0.402c-0.347-0.449-0.686-0.898-1.018-1.355C9.443,44.511,6.145,27.236,13.483,13.049"/>
<path fill="#0A69AD" d="M32.852,11.208c-6.027,8.674-5.7,20.286-0.998,29.46c0.788,1.538,1.675,3.03,2.666,4.451
	c0.903,1.294,1.904,2.835,3.103,3.875c0.435,0.479,0.889,0.944,1.353,1.403c0.117,0.119,0.237,0.233,0.356,0.353
	c0.45,0.438,0.908,0.867,1.382,1.283c0.02,0.016,0.037,0.034,0.057,0.049c0.005,0.006,0.01,0.008,0.013,0.014
	c0.523,0.459,1.064,0.9,1.614,1.336c0.122,0.092,0.243,0.189,0.366,0.285c0.551,0.422,1.112,0.838,1.688,1.232
	c0.018,0.012,0.032,0.024,0.05,0.036c0.254,0.177,0.513,0.341,0.77,0.509c0.123,0.08,0.241,0.166,0.365,0.241
	c0.411,0.265,0.828,0.521,1.251,0.767c0.061,0.037,0.119,0.067,0.178,0.104c0.364,0.209,0.734,0.416,1.105,0.617
	c0.13,0.072,0.262,0.137,0.394,0.205c0.256,0.135,0.514,0.271,0.773,0.4c0.039,0.02,0.078,0.037,0.117,0.053
	c0.53,0.262,1.065,0.514,1.613,0.752c0.116,0.053,0.237,0.098,0.355,0.146c0.438,0.187,0.88,0.367,1.322,0.537
	c0.188,0.072,0.379,0.142,0.566,0.209c0.402,0.147,0.809,0.285,1.215,0.422c0.186,0.06,0.365,0.119,0.551,0.177
	c0.578,0.18,1.151,0.407,1.756,0.508c31.123,5.156,38.309-18.806,38.309-18.806c-6.479,9.328-19.021,13.779-32.405,10.304
	c-0.595-0.156-1.181-0.326-1.763-0.51c-0.178-0.054-0.354-0.111-0.529-0.17c-0.414-0.136-0.824-0.277-1.232-0.427
	c-0.188-0.067-0.373-0.138-0.557-0.207c-0.447-0.172-0.89-0.351-1.328-0.535c-0.119-0.051-0.24-0.098-0.356-0.149
	c-0.55-0.24-1.091-0.492-1.623-0.756c-0.274-0.133-0.545-0.275-0.813-0.414c-0.156-0.08-0.313-0.162-0.471-0.242
	c-0.348-0.188-0.691-0.383-1.029-0.58c-0.082-0.047-0.166-0.092-0.248-0.141c-0.42-0.246-0.836-0.5-1.246-0.762
	c-0.127-0.081-0.25-0.169-0.377-0.251c-0.271-0.176-0.541-0.354-0.809-0.534c-0.572-0.396-1.132-0.812-1.682-1.23
	c-0.127-0.1-0.254-0.197-0.379-0.298c-5.858-4.626-10.503-10.947-12.711-18.115c-2.313-7.434-1.814-15.779,2.194-22.551"/>
<path fill="#0A69AD" d="M54.612,3.667c-3.553,5.229-3.902,11.724-1.438,17.5c2.602,6.13,7.93,10.94,14.147,13.22
	c0.257,0.096,0.513,0.181,0.772,0.269c0.113,0.035,0.226,0.074,0.341,0.107c0.366,0.115,0.729,0.249,1.108,0.32
	c17.185,3.32,21.846-8.819,23.086-10.605c-4.082,5.879-10.944,7.29-19.363,5.247c-0.665-0.162-1.396-0.402-2.037-0.629
	c-0.822-0.293-1.632-0.627-2.419-1.005c-1.495-0.718-2.92-1.59-4.241-2.588C57.038,19.786,52.356,8.881,57.272,0"/>
</svg>
